# xmcd
#
# Track frame offsets: 
#        150
#        21475
#        38423
#        57936
#        77563
#        96775
#        114220
#        131483
#        149809
#        169387
#        187989
#        209913
#        226290
#        247302
#        266542
#
# Disc length: 3814 seconds
#
# Revision: 2
# Processed by: cddbd v1.5.2PL0 Copyright (c) Steve Scherf et al.
# Submitted via: ExactAudioCopy v0.95a5
#
DISCID=da0ee40f
DTITLE=樊桐舟 - 绝色Ⅲ
DYEAR=2006
DGENRE=HI-FI
TTITLE0=末班车
TTITLE1=如果这都不算爱
TTITLE2=曾经最美
TTITLE3=不要再来伤害我
TTITLE4=别怕我伤心
TTITLE5=如果爱
TTITLE6=光(一下子一辈子)
TTITLE7=守望幸福(原创)
TTITLE8=美丽心情
TTITLE9=最远的你是我最近的爱
TTITLE10=不管有多苦
TTITLE11=别哭我的爱人
TTITLE12=时光
TTITLE13=我只能爱你
TTITLE14=一生爱你千百回
EXTD=
EXTT0=
EXTT1=
EXTT2=
EXTT3=
EXTT4=
EXTT5=
EXTT6=
EXTT7=
EXTT8=
EXTT9=
EXTT10=
EXTT11=
EXTT12=
EXTT13=
EXTT14=
PLAYORDER=
